<svg height="512" viewBox="0 0 60 60" width="512" xmlns="http://www.w3.org/2000/svg"><g id="Page-1" fill="none" fill-rule="evenodd"><g id="027---wi-fi-warning" fill-rule="nonzero"><g id="color_copy" transform="translate(1 1)"><g fill="#a4c2f7"><path id="Shape" d="m14 15c-.0012878.8344762.0689694 1.6675266.21 2.49-3.1612867 1.5776152-6.04547376 3.6580124-8.54 6.16-1.17360509 1.1736051-3.07639491 1.1736051-4.25 0-1.17360509-1.1736051-1.17360509-3.0763949 0-4.25 3.75889756-3.7646144 8.25200825-6.7157712 13.2-8.67-.4107396 1.3861543-.6195529 2.8242716-.62 4.27z"/><path id="Shape" d="m56.58 23.65c-1.1737871 1.1731656-3.0762129 1.1731656-4.25 0-2.4945262-2.5019876-5.3787133-4.5823848-8.54-6.16.1410306-.8224734.2112878-1.6555238.21-2.49-.0004471-1.4457284-.2092604-2.8838457-.62-4.27 4.9479918 1.9542288 9.4411024 4.9053856 13.2 8.67 1.1698661 1.1751514 1.1698661 3.0748486 0 4.25z"/><path id="Shape" d="m21.78 28.15c-3.4108542 1.1168557-6.5087225 3.0256087-9.04 5.57-.757403.7591894-1.8622951 1.0566396-2.89847389.780304-1.03617883-.2763355-1.84622427-1.084475-2.12500003-2.12s.01607084-2.1411146.77347392-2.900304c2.3965796-2.410763 5.203855-4.3748399 8.29-5.8 1.3053132 1.8506123 3.0152939 3.379335 5 4.47z"/><path id="Shape" d="m49.51 33.72c-1.1737871 1.1731656-3.0762129 1.1731656-4.25 0-2.5312775-2.5443913-5.6291458-4.4531443-9.04-5.57 1.9847061-1.090665 3.6946868-2.6193877 5-4.47 3.086145 1.4251601 5.8934204 3.389237 8.29 5.8 1.1698135 1.1712702 1.1698135 3.0687298 0 4.24z"/><path id="Shape" d="m40.313 44.669c-.795572.0007557-1.5587321-.3151588-2.121-.878-5.0796931-5.0691318-13.3043069-5.0691318-18.384 0-1.1716721 1.1716721-3.0713279 1.1716721-4.243 0s-1.1716721-3.0713279 0-4.243c7.4249737-7.4077969 19.4450263-7.4077969 26.87 0 .8578524.8581115 1.1143308 2.148481.6498425 3.2694256-.4644882 1.1209445-1.5584728 1.8517198-2.7718425 1.8515744z"/><circle id="Oval" cx="29" cy="52" r="6"/></g><path id="Shape" d="m29 46c-.5064496.0029108-1.0104803.0701149-1.5.2 2.6479943.6813094 4.498931 3.0687622 4.498931 5.803s-1.8509367 5.1216906-4.498931 5.803c2.2531797.5872914 4.6426897-.1820582 6.1299399-1.9736543 1.4872502-1.7915962 1.8036517-4.2818866.8116819-6.3884777s-3.1131667-3.4490442-5.4416218-3.443868z" fill="#7facfa"/><path id="Shape" d="m44 15c.0012878.8344762-.0689694 1.6675266-.21 2.49-.7744364 4.5181792-3.5593926 8.4399273-7.57 10.66h-.01c-4.4902198 2.466621-9.9297802 2.466621-14.42 0h-.01c-4.0106074-2.2200727-6.7955636-6.1418208-7.57-10.66-.1410306-.8224734-.2112878-1.6555238-.21-2.49 0-8.28427125 6.7157288-15 15-15s15 6.71572875 15 15z" fill="#e8edfc"/><path id="Shape" d="m43.38 10.73c-1.8927175-6.36336916-7.7411116-10.727296-14.38-10.73-.507 0-1.006.033-1.5.082 7.6648939.76474411 13.5020798 7.21505069 13.5 14.918.0012878.8344762-.0689694 1.6675266-.21 2.49-.7744364 4.5181792-3.5593926 8.4399273-7.57 10.66h-.01c-1.7639868.9698818-3.7065884 1.5713738-5.71 1.768.494.049.993.082 1.5.082 2.5211814.0035519 5.0019986-.6329962 7.21-1.85h.01c4.0106074-2.2200727 6.7955636-6.1418208 7.57-10.66.1410306-.8224734.2112878-1.6555238.21-2.49-.0004471-1.4457284-.2092604-2.8838457-.62-4.27z" fill="#cad9fc"/><path id="Shape" d="m29 18c-1.1476875.0000795-2.120751-.8438389-2.283-1.98l-1.151-8.06c-.142345-.99556732.1543686-2.00390933.8132461-2.76370984.6588775-.7598005 1.6150619-1.19626804 2.6207539-1.19629016 1.005692.00002212 1.9618764.43648966 2.6207539 1.19629016.6588775.75980051.9555911 1.76814252.8132461 2.76370984l-1.151 8.06c-.162249 1.1361611-1.1353125 1.9800795-2.283 1.98z" fill="#fff"/><circle id="Oval" cx="29" cy="24" fill="#fff" r="2"/></g><g id="color" fill="#fff" transform="translate(1 11)"><path id="Shape" d="m16.78 13.68c-3.086145 1.4251601-5.8934204 3.389237-8.29 5.8-1.05684728 1.0654405-1.16165525 2.7486959-.24513796 3.937008.9165173 1.1883121 2.57118266 1.5145269 3.87013796.762992-.8163085-.4539518-1.369935-1.2671208-1.4930587-2.1930108-.1231236-.9258901.1987527-1.8554822.8680587-2.5069892 1.8002621-1.9698994 4.0269654-3.5022543 6.51-4.48z"/><path id="Shape" d="m14.62.73c-4.94799175 1.95422879-9.44110244 4.90538558-13.2 8.67-1.05605706 1.0663976-1.16157658 2.7491222-.24701082 3.9390926.91456576 1.1899705 2.5677796 1.521 3.87001082.7749074-.22709118-.1267152-.43655019-.2827168-.623-.464-1.16986609-1.1751514-1.16986609-3.0748486 0-4.25 3.88-3.88 5.77-4.5 10.58-6.4z"/><path id="Shape" d="m19.187 34.254c-.8167187-.4552902-1.3701837-1.2698238-1.4927053-2.196812s.2003183-1.8573445.8707053-2.509188c3.1947855-3.1960491 7.4289864-5.1416174 11.935-5.484-5.5417509-.451301-11.0021331 1.5537031-14.935 5.484-1.0694537 1.06237-1.1819282 2.7543047-.2625097 3.9488887.9194184 1.194584 2.5837694 1.5189747 3.8845097.7571113z"/><path id="Shape" d="m27.5 47.8c.2261373.0587556.455533.1041673.687.136l.074.011c.7487012.099833 1.5097783.049865 2.239-.147-2.6479943-.6813094-4.498931-3.0687622-4.498931-5.803s1.8509367-5.1216906 4.498931-5.803c-.7292217-.196865-1.4902988-.246833-2.239-.147l-.074.011c-.231467.0318327-.4608627.0772444-.687.136-2.6479943.6813094-4.498931 3.0687622-4.498931 5.803s1.8509367 5.1216906 4.498931 5.803z"/></g><g id="Icons"><path id="Shape" d="m8.067 14.524 1.1 1.673c-2.17473148 1.4257855-4.19733547 3.071078-6.036 4.91l-1.418-1.414c1.93571223-1.9356993 4.06485225-3.6677618 6.354-5.169z" fill="#fff"/><g fill="#428dff"><path id="Shape" d="m5.4 18.719c-.55228475.0024853-1.00201472-.4432153-1.0045-.9955s.44321525-1.0020147.9955-1.0045h.009c.55228475 0 1 .4477153 1 1s-.44771525 1-1 1z"/><path id="Shape" d="m52.629 25.363c.7528197.7471518 1.7703525 1.1666011 2.831 1.167 1.0591021-.0080765 2.0732969-.4288938 2.827-1.173 1.5558675-1.5674593 1.5558675-4.0965407 0-5.664-3.7404227-3.7494677-8.1949579-6.7105435-13.1-8.708-2.1587113-6.55557068-8.2811494-10.98532641-15.183-10.98532641s-13.0242887 4.42975573-15.183 10.98532641c-2.3581126.9608442-4.6184904 2.1459519-6.75 3.539-.22703909.1449715-.38527992.3761206-.4382903.6402292-.05301038.2641087.00377789.5384172.1572903.7597708.308533.4494378.91826749.572536 1.377.278 1.6151646-1.0582123 3.3091354-1.9909493 5.067-2.79-.148286.8548629-.2265458 1.7204035-.234 2.588.0038025.6500392.0472163 1.2992425.13 1.944-3.008308 1.5768987-5.76077747 3.5997817-8.164 6-.78534891.7831398-2.05686022.7813489-2.84-.004s-.78134891-2.0568602.004-2.84c.28349651-.2464487.40496576-.6309854.31448467-.995568-.0904811-.3645825-.37764816-.647705-.74347738-.7330059-.36582923-.0853008-.74860436.0416104-.99100729.3285739-1.56324198 1.5648988-1.56189884 4.100758.003 5.664s4.10075802 1.5618988 5.664-.003c2.11930479-2.1120752 4.5268418-3.9136037 7.151-5.351.3915683 1.5116786 1.0041732 2.9572645 1.818 4.29-2.7954384 1.412722-5.3483405 3.2611541-7.563 5.476-1.56130895 1.5640704-1.55907035 4.097691.00500004 5.659 1.56407036 1.5613089 4.09769096 1.5590704 5.65899996-.005 2.3253544-2.3426086 5.1564201-4.1214319 8.276-5.2 4.5648097 2.3579834 9.9891903 2.3579834 14.554 0 3.1218967 1.0773934 5.9551681 2.8563129 8.282 5.2 1.5655259 1.5576208 4.0963331 1.5544898 5.658-.007 1.5595294-1.5616553 1.5595294-4.0913447 0-5.653-2.2153651-2.2124036-4.7681906-4.0587549-7.563-5.47.8139169-1.333046 1.4265244-2.7789751 1.818-4.291 2.6263002 1.438092 5.0358594 3.2406321 7.157 5.354zm4.241-4.263c.7783765.7824983.7823891 2.0455719.009 2.833-.7956881.7557402-2.043128.7583738-2.842.006-2.4042064-2.4003817-5.1576893-4.4232661-8.167-6 .0825812-.6431022.1259946-1.2906296.13-1.939-.0059042-.869487-.0828267-1.7370388-.23-2.594 4.1337319 1.8742592 7.894289 4.4809012 11.1 7.694zm-43.834 12.91c-.504459.5066026-1.2408676.7055971-1.9318279.522024-.6909602-.183573-1.23149877-.7218243-1.41799999-1.412-.18650122-.6901756.00936886-1.4274214.51382789-1.934024 2.130873-2.1319707 4.5969243-3.9000957 7.3-5.234.8971788 1.1200651 1.9396982 2.1155029 3.1 2.96-2.8284058 1.1921273-5.3975648 2.9236943-7.564 5.098zm2.964-18.01c0-7.7319865 6.2680135-14 14-14s14 6.2680135 14 14-6.2680135 14-14 14c-7.7285595-.0082673-13.9917327-6.2714405-14-14zm33.8 15.187c.7771094.778424.7797899 2.0382762.006 2.82-.7960888.7547389-2.0427315.7573708-2.842.006-2.164372-2.1740545-4.7310581-3.9062364-7.557-5.1 1.1603018-.8444971 2.2028212-1.8399349 3.1-2.96 2.700335 1.3349915 5.1639125 3.1030383 7.293 5.234z"/><path id="Shape" d="m41.313 46.669c1.6177656.000059 3.0762883-.9743574 3.6955205-2.4689199.6192321-1.4945625.2772398-3.2149744-.8665205-4.3590801-7.8154741-7.7981779-20.4685259-7.7981779-28.284 0-1.5626896 1.5621374-1.5631373 4.0953103-.0009999 5.6579999 1.5621374 1.5626897 4.0953102 1.5631374 5.6579999.0010001 4.6891928-4.6787507 12.2808072-4.6787507 16.97 0 .74896.7513461 1.767127 1.172222 2.828 1.169zm-21.213-2.586c-.5051735.5053522-1.2415753.70281-1.9318099.5179929-.6902346-.184817-1.229439-.7238308-1.4145-1.414-.1850611-.6901692.0121364-1.4266407.5173099-1.9319929 7.0347006-7.016866 18.4212994-7.016866 25.456 0 .7807639.7809997.7807639 2.0470003 0 2.828-.7915033.7559402-2.0374967.7559402-2.829 0-5.4708791-5.4597429-14.3291209-5.4597429-19.8 0z"/><path id="Shape" d="m23 53c0 3.8659932 3.1340068 7 7 7s7-3.1340068 7-7-3.1340068-7-7-7c-3.8641657.0044086-6.9955914 3.1358343-7 7zm12 0c0 2.7614237-2.2385763 5-5 5s-5-2.2385763-5-5 2.2385763-5 5-5c2.7600532.0033061 4.9966939 2.2399468 5 5z"/><path id="Shape" d="m30 4c-1.2953682.00011051-2.5269863.56214998-3.3759101 1.54057066-.8489238.97842067-1.2316586 2.27699129-1.0490899 3.55942934l1.152 8.06c.231965 1.6294142 1.6271573 2.8400526 3.273 2.8400526s3.041035-1.2106384 3.273-2.8400526l1.152-8.06c.1829153-1.28250233-.1996951-2.58126837-1.0486926-3.55977404-.8489976-.97850567-2.0808267-1.54044953-3.3763074-1.54022596zm2.444 4.818-1.151 8.06c-.091522.6437976-.6427295 1.1221876-1.293 1.1221876s-1.201478-.47839-1.293-1.1221876l-1.151-8.059c-.1371758-.95661088.2963669-1.9053127 1.109416-2.42768486.8130492-.52237216 1.8561188-.52237216 2.669168 0 .8130491.52237216 1.2465918 1.47107398 1.109416 2.42768486z"/><path id="Shape" d="m30 22c-1.6568542 0-3 1.3431458-3 3s1.3431458 3 3 3 3-1.3431458 3-3-1.3431458-3-3-3zm0 4c-.5522847 0-1-.4477153-1-1s.4477153-1 1-1 1 .4477153 1 1-.4477153 1-1 1z"/></g></g></g></g></svg>